<?xml version="1.0" encoding="UTF-8" standalone="no"?>
<svg
   version="1.0"
   width="600.000000pt"
   height="600.000000pt"
   viewBox="0 0 600.000000 600.000000"
   preserveAspectRatio="xMidYMid meet"
   id="svg107"
   sodipodi:docname="sGW1p02.svg"
   inkscape:version="1.4.3 (0d15f75042, 2025-12-25)"
   xmlns:inkscape="http://www.inkscape.org/namespaces/inkscape"
   xmlns:sodipodi="http://sodipodi.sourceforge.net/DTD/sodipodi-0.dtd"
   xmlns="http://www.w3.org/2000/svg"
   xmlns:svg="http://www.w3.org/2000/svg">
  <defs
     id="defs107" />
  <sodipodi:namedview
     id="namedview107"
     pagecolor="#ffffff"
     bordercolor="#000000"
     borderopacity="0.25"
     inkscape:showpageshadow="2"
     inkscape:pageopacity="0.0"
     inkscape:pagecheckerboard="0"
     inkscape:deskcolor="#d1d1d1"
     inkscape:document-units="pt"
     inkscape:zoom="0.47125"
     inkscape:cx="592.04244"
     inkscape:cy="609.01857"
     inkscape:window-width="1646"
     inkscape:window-height="1005"
     inkscape:window-x="0"
     inkscape:window-y="0"
     inkscape:window-maximized="1"
     inkscape:current-layer="svg107" />
  <g
     transform="translate(0.000000,600.000000) scale(0.100000,-0.100000)"
     fill="#000000"
     stroke="none"
     id="g107">
    <path
       id="path1"
       style="display:inline;fill:#ffffff;fill-opacity:1;stroke:#000000;stroke-width:55;stroke-linejoin:miter;stroke-dasharray:none;stroke-opacity:1"
       inkscape:label="outline"
       d="m 3052.7197,5397.1289 c -5.625,0.125 -10.124,-3.6328 -17.124,-11.1328 -9,-9 -24.0029,-15.9961 -33.0029,-15.9961 -9,0 -25.9912,-7 -35.9912,-15 -11,-8 -32.0069,-15 -47.0069,-15 -14,0 -31.9941,-7 -38.9941,-15 -7,-9 -29.9942,-15 -53.9942,-15 -26,-1 -56.0058,-10.0049 -81.0058,-25.0049 -22,-14 -49.0039,-24.9902 -59.0039,-24.9902 -11,0 -38,-12.0117 -60,-27.0117 -89,-58 -127.9981,-85.9942 -157.9981,-113.9942 -39,-35 -89.9941,-53 -128.9941,-45 -25,5 -31.0088,2.001 -39.0088,-18.999 -8,-20 -16.9893,-25.0049 -43.9893,-25.0049 -60,0 -62.0126,-20.9922 -8.0126,-76.9922 56,-57 117.0029,-142 108.0029,-150 -8,-9 -143.9971,133.9951 -176.9971,184.9951 -39,62 -104.0039,108.001 -164.0039,116.001 -27,4 -58.9902,12.9951 -69.9902,19.9951 -11,7 -47.0098,20 -80.0098,30 -33,10 -75.0029,22.0079 -93.0029,28.0079 -18,5 -40.9873,19 -51.9873,30 -25,27 -50.0098,16.9941 -50.0098,-21.0059 0,-26 -6,-32.9951 -45,-49.9951 -44,-19 -144.9902,-111.9971 -144.9902,-131.9971 0,-6 -16.0098,-34.0029 -35.0098,-63.0029 -61,-92 -89,-209.003 -90,-378.003 0,-88 1.9981,-100 22.9981,-120 21,-21 24.0097,-21.998 50.0097,-7.998 35,20 33.9971,33.998 -3.0029,37.998 -39,4 -55.0049,26.003 -55.0049,78.003 0,55 14.9981,63.9941 37.9981,23.9941 49,-90 109.0126,-142.9961 188.0126,-165.9961 28,-8 58.9903,-21.0039 69.9903,-29.0039 18,-13 16.998,-16.001 -22.002,-56.001 -53,-52 -81.999,-48.999 -108.999,11.001 -19,43 -41.002,67.001 -52.0019,56.001 -4,-3 -0.9903,-12.0029 5.0097,-18.0029 26,-26 10.002,-224.9912 -22.998,-290.9912 -8,-17 -15,-40.002 -15,-52.002 0,-12 -11.0049,-33.999 -25.0049,-48.999 -14,-15 -25.0049,-33.0049 -25.0049,-40.0049 0,-7 -14.9922,-25.9932 -31.9922,-42.9932 -18,-17 -39.999,-44 -48.999,-60 -9,-17 -41.0117,-44.0068 -72.0117,-62.0068 -30,-17 -60.9981,-39.0029 -67.9981,-48.0029 -13,-15 -10.999,-15.9864 11.001,-10.9864 14,4 40.0078,8.9932 58.0078,12.9932 l 33.999,7.002 -15.9961,-30 c -8,-16 -26.0087,-36 -39.0087,-45 -18,-12 -22.9952,-22.001 -19.9952,-41.001 4,-19 -2.0009,-31.9981 -26.0009,-52.9981 -17,-15 -46.9952,-43 -64.9952,-60 -19,-18 -39,-33.0029 -45,-33.0029 -14,0 -14.0107,-13.001 -1.0107,-26.001 6,-6 1,-26.9931 -15,-57.9931 -14,-27 -24.9902,-62.0069 -24.9902,-77.0069 0,-20 -8.0118,-33.9961 -27.0117,-45.9961 -16.00035,-9 -29.99224,-18.0097 -31.99224,-20.0097 -3,-2 4.00391,-8.9922 14.00391,-16.9922 20.00003,-15 14.99123,-45.9961 -9.00879,-45.9961 -36,0 -54.99805,-110.0117 -22.99805,-132.0117 7,-4 6.00782,-11.9873 -1.99218,-21.9873 -11,-13 -10.00098,-27.0059 3.99902,-81.0059 15,-54 15.99512,-67.0059 4.99512,-81.0059 -11,-13 -10.9961,-16.9941 -0.9961,-23.9941 8,-4 14.9961,-19.999 15.9961,-33.999 6,-51 41.00491,-65.9961 70.00491,-30.9961 8,10 15.9951,7.998 34.9951,-7.002 l 25.0049,-20.0097 -43.0078,-36.9873 c -44,-38 -44.9952,-51.0059 -4.9952,-51.0059 18,0 21.9952,-5.002 19.9952,-22.002 -2,-19 4.0029,-24.0039 33.0029,-29.0039 27,-4 31.0029,-6.9931 18.0029,-12.9931 -24,-11 -23,-36.0059 0,-36.0059 26,0 33.9912,-10.9971 20.9912,-26.9971 -7,-7 -13,-45.997 -15,-86.997 l -3.999,-74.0039 39.0088,-26.001 c 28,-20 40.9961,-36.9922 45.9961,-61.9922 5,-27 13.0058,-38.0107 36.0058,-46.0107 31,-11 36.9922,-25.9961 16.9922,-45.9961 -15,-15 -5.0029,-25.9951 41.9971,-49.9951 36,-18 57.0049,-50.9981 25.0049,-37.9981 -15,5 -16.0049,1.9941 -10.0049,-21.0059 3,-16 11.999,-34.9931 18.999,-42.9931 7,-8 15.999,-23.0069 18.9991,-32.0069 4,-11 17.0068,-18.0029 32.0068,-18.0029 17,0 29.0019,-7.9902 37.0019,-24.9902 16,-36 52.9932,-43.0108 87.9932,-16.0108 16,11 34.0049,21.0059 40.0049,21.0059 16,0 11.998,-18.0039 -7.002,-29.0039 -20,-11 -16.9922,-15.9902 13.0078,-24.9902 16,-5 22.9971,-2.0069 26.9971,12.9931 6,24 49.001,45.9981 71.001,37.9981 20,-8 20.9922,-37.002 1.9922,-37.002 -8,0 -24.002,-8.9912 -37.002,-20.9912 l -23.9941,-20.0098 55.0049,5.0098 c 77,8 104.9912,-11.0098 95.9912,-65.0098 -6,-36 -3.999,-40.9892 26.001,-58.9892 18,-11 46.999,-20.0098 63.999,-20.0098 39,0 104.0039,-66 104.0039,-105 0,-14 3.9941,-24.9902 8.9941,-24.9902 9,0 25.002,-75.0049 22.002,-100.0049 -2,-8 -14.9961,-28 -30.9961,-45 -23,-25 -28.0078,-39.0059 -28.0078,-81.0059 v -50.9912 l 29.0039,9.9903 c 15,6 30.999,8.0097 33.999,5.0097 9,-8 -17.9932,-59.0058 -42.9932,-81.0058 l -20.0097,-18.9991 24.0088,-34.9951 c 27,-41 30.9941,-79.999 8.9941,-108.999 -9,-12 -11.9941,-32.0088 -8.9941,-54.0088 6,-43 -18.0049,-160.99705 -40.0049,-191.99705 -20,-29 -20.0039,-49.00098 0.9961,-86.00098 16,-28 16,-35.99316 0,-132.99316 -10,-57 -21.9932,-125.99903 -27.9932,-153.99903 -5,-27 -13.0029,-69.00683 -18.0029,-92.00683 -10,-55 -21.9961,-67.99805 -75.9961,-82.99805 -25,-7 -47.9951,-16.00586 -49.9951,-21.00586 -10,-15 17.0009,-20.99805 41.0009,-7.99805 46,24 44.9932,-2.99316 -2.0068,-72.99316 -44,-67 -73.999,-88.00391 -108.999,-74.00391 -8,3 -15,16.00782 -15,28.00782 0,13 -4.0049,29.99804 -10.0049,37.99804 -8,12 -10,11.99317 -15,-2.00683 -4,-9 -5.0029,-30.99903 -3.0029,-48.99903 2,-25 10.0107,-36.99218 31.0107,-46.99218 35,-17 38.9912,-71.013676 5.9912,-79.013676 -14,-4 -18.9961,-11.994141 -15.9961,-23.994141 1.5442,-5.558545 0.3294,-9.4996075 -24.624,-12.2900386 6.674,-1.6792429 13.3361,-3.3859831 20.0098,-5.053711 2.2809,-0.548861 4.5613,-1.10080506 6.8408,-1.6552734 h 4342.7783 v 4178.9941 c -15,6 -36.0029,27.003 -48.0029,48.003 -11,21 -26.0029,46.997 -33.0029,56.997 -48,76 -67.002,113.001 -67.002,131.001 0,27 -56.9951,82.0108 -94.9951,91.0108 -42,10 -117.9981,51.9902 -127.9981,69.9902 -5,9 -15.997,13.0088 -26.997,9.0088 -10,-3 -21.0049,-1.0049 -25.0049,4.9951 -3,5 -16.0039,10.0049 -29.0039,10.0049 -13,0 -46.9951,20.9951 -79.9951,49.9951 -34,29 -73.0088,53.9961 -99.0088,60.9961 -23,6 -70.9883,30.0088 -107.9883,54.0088 -45,29 -71.0098,39.999 -80.0098,33.999 -21,-13 -26.999,-10.999 -33.999,11.001 -11,34 -48.9951,67.9971 -79.9951,71.9971 -22,2 -30.9951,9.9931 -34.9951,27.9931 -6,23 -10.0108,25.002 -61.0108,22.002 -34,-2 -64.0019,-10.9981 -82.0019,-22.9981 -16,-12 -34.9971,-18 -41.9971,-15 -8,3 -27.9893,31.003 -43.9893,63.003 -51,102 -147.0019,192.9931 -202.0019,192.9931 -12,0 -52.0078,-8.999 -88.0078,-18.999 -101,-29 -136.9903,-32.999 -159.9903,-18.999 -17,11 -29.0009,10.0049 -71.0009,-4.9951 -112,-40 -197.0078,-31.9981 -223.0078,22.0019 -13,26 -25.003,28.9961 -78.003,15.9961 -21,-5 -33.9922,-0.01 -61.9922,23.9941 -26,24 -45.998,32.0098 -82.998,35.0098 -27,2 -55.999,5.9941 -63.999,8.9941 -8,3 -28,6.0059 -45,6.0059 -37,0 -184.0117,28.9971 -207.0117,41.9971 -10,5 -27.001,5 -41.001,0 -17,-7 -43.9951,-3.003 -94.9951,11.997 -61,19 -71.9971,25 -71.9971,45 0,24 -18.9981,29.0049 -37.9981,10.0049 -9,-9 -18.0019,-9 -37.0019,0 -14,7 -37.0059,11.9971 -51.0059,11.9971 -18,0 -27.9961,6.9951 -30.9961,19.9951 -4,15 -10.9941,19 -23.9941,15 -10,-3 -29.0078,1.0049 -43.0078,10.0049 -11.5,8 -18.252,12.0039 -23.877,12.1289 z M 5988.6035,0 V -30 L 6000,0 Z" />
    <path
       d="M3010 5250 c-8 -5 -15 -15 -15 -22 0 -8 -10 -12 -25 -10 -120 15 -308 -14 -415 -63 -27 -13 -67 -27 -87 -30 -45 -8 -74 -28 -64 -43 8 -14 42 -16 50 -4 3 5 64 15 137 22 105 11 146 11 201 2 65 -11 71 -11 95 8 14 11 32 20 39 20 7 0 21 11 30 25 20 30 45 32 69 5 10 -11 23 -20 30 -20 6 0 29 -15 51 -34 l39 -34 50 20 c48 19 54 19 197 3 82 -8 159 -21 173 -27 26 -12 55 -5 55 12 0 13 -97 60 -124 60 -10 0 -57 13 -105 29 -47 16 -119 34 -158 40 -40 6 -95 20 -123 31 -56 22 -78 24 -100 10z"
       id="path2" />
    <path
       d="M2925 4986 c27 -22 28 -24 9 -30 -11 -3 -42 1 -70 9 -72 22 -102 19 -179 -19 -82 -39 -133 -82 -117 -98 8 -8 39 -2 110 21 111 35 159 38 223 16 24 -9 66 -15 92 -14 38 2 51 -1 59 -15 9 -16 12 -15 34 9 18 20 30 25 47 19 25 -8 23 -8 92 1 50 6 136 -12 230 -48 22 -9 58 -16 80 -16 l40 0 -25 21 c-47 40 -153 79 -304 114 -100 23 -164 33 -189 29 -24 -3 -48 0 -67 10 -16 8 -44 15 -62 15 l-33 0 30 -24z"
       id="path3" />
    <path
       d="M3951 4974 c-27 -22 -32 -33 -28 -58 4 -31 3 -36 -27 -93 -9 -17 -16 -37 -16 -44 0 -7 -7 -21 -17 -31 -9 -10 -13 -21 -9 -25 4 -4 44 29 89 73 45 44 107 103 138 131 l56 51 -56 5 c-31 2 -65 7 -77 11 -15 5 -30 0 -53 -20z"
       id="path4" />
    <path
       d="M1620 4946 c0 -7 96 -56 110 -56 6 0 8 5 5 10 -10 16 -115 57 -115 46z"
       id="path5" />
    <path
       d="M1916 4869 c20 -22 66 -49 84 -49 26 0 6 30 -33 49 -57 28 -76 28 -51 0z"
       id="path6" />
    <path
       d="M1796 4871 c-7 -11 11 -26 41 -35 31 -10 37 9 8 28 -27 18 -41 20 -49 7z"
       id="path7" />
    <path
       d="M1470 4820 c0 -6 7 -26 15 -45 10 -26 22 -37 45 -41 41 -9 46 -21 21 -48 -28 -29 -27 -35 9 -47 27 -10 30 -15 30 -54 0 -70 20 -96 49 -61 9 11 18 11 49 1 20 -7 77 -16 126 -20 l88 -8 -7 32 c-5 24 -3 31 9 31 9 0 16 5 16 10 0 10 -13 19 -150 100 -54 31 -65 43 -65 64 -1 43 -47 68 -115 60 -46 -5 -59 -3 -82 15 -29 23 -38 26 -38 11z"
       id="path8" />
    <path
       d="M2496 4804 c-3 -9 -6 -42 -6 -74 l0 -57 -45 -13 c-62 -17 -127 -75 -123 -109 4 -35 41 -40 80 -11 24 17 50 23 139 30 61 4 113 10 115 13 3 3 13 20 22 39 23 45 146 109 206 106 23 0 51 4 63 10 28 16 96 15 111 0 7 -7 12 -20 12 -30 0 -13 -8 -18 -30 -18 -28 0 -30 -2 -30 -39 0 -22 -6 -44 -15 -51 -8 -7 -15 -20 -15 -29 0 -9 -18 -38 -40 -65 -61 -74 -52 -83 38 -41 90 42 98 35 79 -64 l-12 -63 -75 -22 c-41 -12 -112 -41 -158 -64 -46 -24 -108 -52 -139 -63 -66 -25 -117 -68 -104 -87 12 -19 156 31 340 118 96 46 156 69 176 67 25 -2 30 1 27 18 -1 11 -5 54 -8 95 -4 41 -11 83 -16 93 -6 12 -5 23 2 32 10 12 16 12 42 -1 24 -12 36 -13 64 -4 69 23 164 -15 311 -126 169 -127 258 -181 286 -171 7 2 -17 34 -53 71 -142 148 -381 296 -480 296 -71 0 -130 57 -130 125 0 30 15 33 30 5 8 -16 20 -19 64 -19 57 1 207 -40 241 -65 19 -14 19 -15 2 -28 -18 -13 -18 -15 -2 -28 9 -8 33 -14 53 -15 21 -1 66 -15 102 -32 69 -33 163 -59 178 -49 5 3 19 -3 31 -13 27 -23 59 -15 106 25 26 22 27 25 9 21 -13 -3 -42 7 -70 24 -33 19 -63 29 -91 29 -45 0 -173 52 -173 71 0 6 13 23 29 38 31 29 58 99 48 125 -10 26 -41 18 -60 -14 -10 -17 -36 -39 -58 -50 l-40 -21 -92 29 c-83 27 -118 31 -367 47 l-275 17 -59 -26 c-32 -15 -78 -29 -102 -33 -41 -5 -46 -3 -78 31 -38 40 -51 44 -60 20z m168 -155 c9 -8 2 -12 -42 -25 -16 -5 -52 13 -52 26 0 19 73 19 94 -1z"
       id="path9" />
    <path
       d="M1870 4800 c-13 -9 -9 -16 20 -41 40 -35 102 -69 125 -69 23 0 21 69 -2 76 -10 3 -36 14 -59 25 -46 21 -62 23 -84 9z"
       id="path10" />
    <path
       d="M4336 4792 c-3 -5 4 -18 15 -28 35 -31 279 -49 279 -20 0 6 -7 21 -15 33 -15 21 -18 21 -55 8 -28 -10 -49 -11 -72 -4 -19 5 -52 8 -74 7 -21 -1 -46 2 -55 6 -10 4 -20 3 -23 -2z"
       id="path11" />
    <path
       d="M2092 4738 c28 -36 48 -47 48 -26 0 18 -42 58 -59 58 -9 0 -5 -11 11 -32z"
       id="path12" />
    <path
       d="M4139 4652 c-67 -39 -149 -105 -145 -117 1 -5 20 -11 42 -13 39 -3 39 -3 36 -40 -3 -34 0 -40 38 -65 23 -15 53 -27 66 -27 14 0 27 -7 30 -15 9 -22 37 -18 62 8 26 27 28 37 8 37 -23 0 -30 20 -13 38 13 12 19 13 31 3 11 -9 15 -9 19 1 14 42 149 -93 177 -178 12 -37 33 -41 38 -8 7 37 21 37 62 1 32 -29 48 -37 79 -37 39 0 51 -11 51 -47 0 -11 -7 -13 -28 -8 -20 4 -33 1 -41 -9 -17 -21 -10 -50 14 -54 11 -2 27 -13 36 -24 24 -31 50 -17 43 22 -8 38 9 60 46 60 55 0 61 7 38 48 -11 20 -29 49 -39 64 -11 14 -19 31 -19 37 0 6 -5 11 -11 11 -8 0 -10 12 -6 36 8 47 -8 52 -80 20 -117 -50 -130 -44 -78 35 62 94 59 117 -9 79 -39 -21 -47 -22 -75 -10 -34 14 -37 20 -19 38 9 9 7 17 -10 35 -28 30 -28 41 1 34 12 -4 27 -3 33 1 17 11 36 51 29 62 -12 19 -83 10 -199 -25 -121 -37 -182 -65 -204 -93 -10 -13 -16 -14 -30 -6 -38 25 -23 64 26 64 23 0 72 40 72 60 0 17 -22 11 -71 -18z"
       id="path13" />
    <path
       d="M1980 4656 c-6 -8 -21 -16 -33 -18 -22 -3 -22 -3 4 -30 40 -41 161 -69 193 -45 19 14 19 16 2 41 -36 57 -136 87 -166 52z"
       id="path14" />
    <path
       d="M5240 4632 c0 -7 63 -42 75 -42 17 0 -1 19 -30 33 -41 19 -45 20 -45 9z"
       id="path15" />
    <path
       d="M2797 4589 c-27 -10 -73 -35 -103 -54 -68 -44 -218 -189 -212 -207 3 -7 18 -15 34 -19 16 -3 40 -11 53 -18 22 -12 29 -7 135 97 61 60 132 121 158 136 53 31 64 49 42 71 -20 20 -48 18 -107 -6z"
       id="path16" />
    <path
       d="M5316 4541 c-3 -5 1 -14 9 -21 23 -19 38 -76 25 -99 -8 -17 -7 -22 11 -31 26 -15 49 -68 49 -117 0 -21 11 -59 25 -85 14 -26 25 -54 25 -62 0 -32 78 -126 190 -230 63 -58 118 -115 122 -126 4 -11 12 -20 18 -20 5 0 10 -7 10 -15 0 -19 38 -90 56 -106 8 -6 14 -24 14 -39 0 -15 14 -54 31 -86 l30 -58 -22 -17 -23 -17 33 -50 c32 -50 32 -52 20 -106 -14 -65 -8 -86 26 -86 l25 0 0 208 0 209 -40 16 -40 15 16 29 c16 27 16 30 -10 67 -14 21 -26 44 -26 51 0 7 -27 43 -60 79 -32 36 -66 79 -75 96 -8 16 -20 30 -25 30 -12 0 -92 158 -110 215 -6 22 -26 75 -42 118 -28 71 -39 86 -121 162 -85 81 -125 102 -141 76z m220 -276 c3 -18 4 -45 2 -61 -3 -28 -4 -28 -40 27 -36 55 -58 135 -43 160 10 15 73 -83 81 -126z"
       id="path17" />
    <path
       d="M2046 4515 c-11 -8 -28 -15 -39 -15 -10 0 -21 -9 -24 -20 -3 -11 -9 -20 -13 -20 -4 0 -13 -13 -20 -30 -12 -30 -13 -30 -96 -30 -67 0 -98 6 -165 30 -79 30 -109 32 -109 10 0 -5 18 -21 40 -35 33 -21 40 -31 40 -56 0 -18 5 -49 12 -70 l11 -39 73 0 c89 0 119 10 139 50 8 16 23 30 33 30 27 0 82 38 91 63 5 13 16 29 25 36 9 7 16 21 16 31 0 11 10 20 30 24 34 6 40 30 11 46 -25 13 -32 12 -55 -5z"
       id="path18" />
    <path
       d="M4910 4487 c-64 -22 -45 -77 27 -77 26 0 36 -6 47 -28 8 -15 26 -33 40 -40 15 -7 26 -20 26 -31 0 -11 5 -23 10 -26 6 -3 10 -17 10 -30 0 -15 10 -31 27 -42 14 -10 42 -33 61 -51 26 -25 33 -37 28 -56 -7 -27 7 -36 59 -36 28 0 33 -4 38 -29 4 -16 25 -50 49 -76 104 -112 129 -137 135 -131 4 3 6 20 6 38 0 34 -31 68 -64 68 -23 0 -35 18 -20 33 28 28 -3 85 -56 102 -18 5 -23 14 -23 40 0 45 -39 90 -87 102 -43 10 -54 35 -28 63 27 29 12 65 -32 83 -21 8 -65 42 -99 76 -66 66 -85 72 -154 48z"
       id="path19" />
    <path
       d="M3160 4418 c0 -13 11 -46 24 -75 26 -55 28 -56 119 -68 80 -11 130 -33 174 -79 40 -42 110 -76 158 -76 11 0 26 -5 33 -12 12 -12 79 -38 100 -38 18 0 11 41 -8 50 -8 4 -55 26 -105 50 -49 23 -131 69 -182 102 -94 61 -111 67 -152 54 -20 -7 -31 0 -81 53 -61 65 -80 74 -80 39z"
       id="path20" />
    <path
       d="M2309 4270 c-32 -9 -79 -49 -79 -67 0 -7 -23 -38 -50 -68 -45 -49 -50 -60 -45 -88 5 -28 0 -40 -45 -92 -28 -33 -67 -91 -86 -130 -39 -78 -42 -66 28 -116 l23 -17 -18 -48 c-31 -81 -32 -102 -7 -136 13 -17 25 -53 29 -82 l6 -51 60 -7 c32 -4 83 -15 112 -23 44 -13 57 -22 85 -65 41 -61 121 -123 208 -162 104 -46 109 -49 120 -81 5 -16 10 -48 10 -71 0 -31 6 -45 25 -61 18 -14 28 -36 35 -75 12 -61 26 -84 35 -54 12 37 22 49 41 49 17 0 19 -10 22 -102 2 -75 -1 -112 -13 -139 -8 -20 -13 -39 -11 -42 11 -11 37 10 53 42 9 19 20 33 25 30 11 -7 10 -97 -1 -110 -10 -10 -81 -176 -81 -188 0 -4 13 -20 29 -35 28 -26 28 -28 17 -82 -6 -31 -17 -63 -24 -71 -7 -9 -10 -23 -6 -32 4 -11 0 -16 -14 -16 -24 0 -27 -4 -36 -47 -6 -26 -4 -32 14 -38 15 -5 28 -1 41 14 25 27 35 21 43 -27 8 -51 72 -149 127 -195 88 -74 155 -128 216 -174 35 -27 63 -54 63 -61 0 -7 -20 -32 -43 -56 -49 -49 -149 -92 -277 -120 -41 -9 -83 -19 -92 -22 -11 -3 -21 4 -30 22 -11 22 -21 27 -62 30 -28 2 -74 11 -103 19 -30 9 -59 13 -65 9 -8 -5 -9 2 -4 21 6 24 5 27 -11 20 -49 -20 -55 -19 -51 10 4 38 31 54 60 36 13 -8 38 -18 56 -22 44 -10 38 9 -11 36 -29 16 -37 26 -37 48 0 17 -7 30 -17 34 -10 3 -26 12 -35 20 -14 13 -18 12 -27 -6 l-11 -21 -44 22 -44 21 -66 -47 c-36 -26 -75 -60 -87 -74 -19 -24 -19 -27 -4 -30 10 -2 49 11 87 28 38 18 72 29 75 26 3 -3 -12 -25 -34 -49 -39 -42 -61 -83 -50 -94 10 -10 45 17 82 64 21 26 47 56 58 66 50 45 50 -7 0 -60 -76 -79 -125 -144 -119 -158 10 -26 29 -16 85 45 31 33 60 60 64 60 5 0 5 -15 2 -32 -7 -32 -7 -33 12 -16 20 19 43 24 43 10 0 -12 -56 -98 -69 -106 -6 -4 -11 -16 -11 -27 0 -10 -7 -19 -15 -19 -17 0 -32 -67 -17 -82 12 -12 53 39 81 105 21 49 41 62 41 27 0 -29 24 -35 70 -16 22 9 40 13 40 10 0 -4 7 0 16 7 12 10 59 15 165 18 l149 3 0 -30 c0 -50 20 -49 63 1 21 26 45 47 52 47 7 0 29 14 50 30 51 40 80 38 188 -12 80 -36 94 -40 120 -30 24 9 36 8 60 -5 22 -11 35 -13 47 -6 18 12 120 -5 131 -21 4 -5 17 -6 29 -3 24 6 40 -23 40 -73 0 -27 2 -28 33 -20 71 19 82 23 95 38 19 24 14 93 -9 131 -11 18 -18 38 -17 43 2 6 44 -17 93 -50 49 -34 92 -59 95 -56 6 7 -116 124 -155 150 -24 15 -28 15 -74 -5 -27 -11 -74 -24 -106 -27 -38 -5 -66 -15 -85 -30 -43 -37 -104 -28 -226 33 -55 28 -106 59 -114 67 -30 37 -2 116 41 116 43 0 302 252 358 348 64 109 87 118 83 32 -2 -57 10 -71 33 -36 19 29 11 52 -37 102 -36 39 -47 84 -48 195 0 70 -4 91 -19 111 -11 13 -22 46 -26 73 -4 28 -15 62 -26 77 -10 15 -19 37 -19 50 0 13 -7 32 -15 42 -8 11 -15 39 -15 63 0 24 -4 43 -9 43 -17 0 -53 60 -55 89 -1 16 -7 35 -14 44 -8 9 -11 25 -7 37 4 14 -1 30 -19 51 -19 22 -26 42 -26 72 0 23 -1 60 -1 82 0 22 2 55 6 73 4 19 2 44 -5 62 -10 24 -10 33 0 45 16 20 26 12 35 -27 l7 -33 14 50 c7 28 14 63 14 78 0 15 6 38 14 50 33 51 48 230 26 308 -10 35 -64 89 -89 89 -14 0 -15 7 9 -75 11 -38 20 -78 20 -87 0 -29 -30 -21 -65 17 -43 45 -65 154 -45 216 13 38 14 39 62 39 26 0 48 4 48 10 0 12 -89 80 -107 80 -10 0 -12 -10 -7 -40 6 -38 5 -40 -20 -40 -31 0 -44 24 -27 52 15 23 6 38 -21 38 -12 0 -36 5 -55 12 -18 6 -36 9 -39 5 -14 -13 16 -83 56 -130 58 -70 72 -144 43 -224 -5 -15 -3 -15 18 4 l25 22 32 -49 c48 -73 68 -127 76 -203 6 -54 5 -68 -6 -66 -38 5 -58 -26 -58 -91 0 -39 -1 -40 -35 -40 -41 0 -56 -23 -32 -48 15 -14 18 -14 35 1 20 18 52 23 52 8 0 -5 -7 -14 -15 -21 -8 -7 -22 -37 -31 -67 l-16 -55 31 -32 31 -32 -31 -57 c-28 -52 -33 -56 -57 -51 -15 4 -37 13 -50 21 -29 18 -17 37 34 53 29 10 68 50 48 50 -36 0 -134 -39 -158 -62 -16 -16 -27 -30 -25 -31 2 -1 13 -7 24 -13 10 -6 23 -25 28 -43 8 -32 9 -32 27 -16 16 14 29 16 67 11 27 -4 57 -7 69 -7 19 1 44 -33 44 -60 0 -5 14 -28 30 -51 47 -64 79 -180 78 -280 -1 -105 -4 -117 -34 -129 -23 -8 -25 -12 -18 -54 5 -33 2 -51 -10 -70 -21 -32 -20 -40 6 -52 22 -10 22 -10 -10 -27 -40 -21 -35 -32 19 -39 50 -7 85 -38 101 -88 17 -59 8 -69 -63 -69 l-61 0 23 -20 24 -20 -40 -32 c-22 -18 -55 -47 -74 -65 -18 -18 -39 -33 -46 -33 -8 0 -17 -4 -20 -10 -4 -6 -17 -4 -35 5 -21 11 -36 12 -55 5 -48 -18 -82 -12 -127 25 -24 19 -81 58 -127 87 -46 29 -93 67 -103 83 -29 48 -33 93 -13 132 11 19 21 53 24 75 6 39 31 67 31 34 0 -9 5 -16 10 -16 11 0 14 49 4 75 -5 12 -9 13 -14 5 -4 -7 -12 -10 -18 -6 -47 29 -32 400 19 482 30 50 21 104 -19 104 -10 0 -13 -11 -10 -37 2 -23 -2 -38 -10 -41 -7 -2 -21 -21 -32 -42 -17 -33 -54 -60 -65 -48 -1 1 1 47 6 101 8 88 7 101 -11 137 -11 22 -27 69 -36 106 -20 87 -51 169 -107 281 l-46 91 -67 22 c-75 25 -138 23 -200 -6 -31 -15 -41 -16 -68 -4 -17 7 -53 21 -81 30 -65 24 -84 51 -97 136 -5 38 -17 101 -25 141 -15 68 -15 72 4 100 51 71 113 222 113 273 0 15 7 33 15 40 8 7 15 20 15 30 0 10 7 23 15 30 8 7 15 18 15 25 0 8 12 27 26 44 14 17 23 35 19 41 -7 11 -10 11 -46 0z m209 -957 c20 -27 21 -27 40 -10 31 28 66 19 70 -18 2 -23 -4 -37 -27 -59 -27 -26 -34 -28 -77 -21 -62 9 -104 49 -104 99 0 35 1 36 39 36 31 0 43 -6 59 -27z"
       id="path21" />
    <path
       d="M3997 4253 c-13 -12 -7 -33 9 -33 25 0 12 -33 -16 -40 -39 -9 -39 -53 -1 -91 41 -41 50 -58 62 -126 16 -89 93 -236 148 -283 25 -22 51 -40 57 -40 30 0 83 -90 93 -159 4 -30 12 -47 22 -49 22 -4 30 42 23 131 l-7 73 -70 60 c-44 38 -76 74 -87 100 -10 22 -39 71 -64 108 -47 69 -49 76 -46 135 1 27 -6 41 -36 72 -34 35 -37 42 -26 59 16 27 15 55 -4 74 -16 16 -46 21 -57 9z"
       id="path22" />
    <path
       d="M1485 4209 c-8 -12 3 -112 16 -147 18 -47 44 -20 75 79 3 9 -7 29 -26 47 -33 33 -54 40 -65 21z"
       id="path23" />
    <path
       d="M3250 4207 c0 -8 15 -31 34 -53 l33 -39 -36 -12 c-38 -13 -51 -6 -51 30 0 33 -19 7 -37 -50 -22 -71 -38 -78 -131 -64 -39 6 -105 11 -147 11 -41 0 -83 5 -94 11 -32 21 -87 1 -168 -60 -43 -33 -93 -77 -111 -100 -70 -88 -99 -181 -71 -232 5 -11 9 -27 7 -35 -2 -12 -22 -2 -80 36 l-77 52 -40 -23 c-47 -26 -57 -45 -33 -58 32 -17 220 -91 231 -91 6 0 20 5 30 12 15 9 24 7 47 -11 26 -20 29 -21 32 -6 2 9 -6 43 -18 76 -44 118 -16 202 99 293 87 68 105 74 141 48 l30 -22 61 25 c66 28 95 27 158 -5 l34 -17 -38 -19 c-26 -13 -51 -38 -74 -76 -20 -31 -53 -81 -74 -111 -21 -30 -45 -76 -53 -102 -13 -43 -12 -51 2 -73 12 -19 15 -38 10 -78 -6 -53 -1 -84 14 -84 12 0 68 140 76 188 5 35 4 42 -10 42 -9 0 -16 5 -16 10 0 24 32 84 73 138 24 31 49 67 56 80 6 12 16 22 21 22 16 0 11 -50 -10 -119 -12 -36 -18 -71 -15 -79 17 -44 81 91 111 232 16 75 53 149 82 165 37 20 176 -31 289 -107 39 -25 64 -35 90 -34 20 1 51 -6 70 -15 40 -18 149 -134 171 -181 16 -32 15 -37 -11 -111 -30 -85 -33 -106 -15 -95 7 4 44 11 82 15 69 7 168 37 187 56 6 6 1 22 -14 44 -21 31 -28 34 -73 35 -27 1 -54 2 -60 3 -6 1 -27 36 -45 78 -27 63 -49 93 -111 156 -78 78 -157 127 -207 127 -35 0 -143 29 -168 46 -13 8 -23 23 -23 32 0 21 -39 61 -90 91 -40 24 -70 27 -70 8z"
       id="path24" />
    <path
       d="M3104 4195 c-4 -8 -16 -15 -28 -15 -34 0 -181 -66 -181 -81 0 -16 63 -17 160 -2 75 11 85 17 85 53 0 52 -23 80 -36 45z"
       id="path25" />
    <path
       d="M4748 4023 c-42 -48 -49 -96 -18 -113 11 -6 20 -17 20 -25 0 -8 11 -22 25 -31 19 -12 25 -25 25 -50 0 -29 3 -34 24 -34 63 0 86 -12 113 -59 33 -57 62 -91 80 -91 18 0 33 42 33 91 0 39 0 39 40 39 36 0 40 3 40 25 0 16 6 25 16 25 11 0 15 -6 11 -20 -3 -11 -1 -20 4 -20 5 0 9 25 9 55 l0 55 -42 0 c-48 0 -152 -30 -170 -48 -7 -7 -16 -12 -21 -12 -12 0 -49 88 -42 100 4 6 -6 23 -22 38 -15 15 -36 42 -45 60 -19 37 -55 43 -80 15z"
       id="path26" />
    <path
       d="M5862 4008 c3 -7 15 -15 27 -16 16 -3 22 1 19 10 -3 7 -15 15 -27 16 -16 3 -22 -1 -19 -10z"
       id="path27" />
    <path
       d="M4316 3988 c5 -13 7 -34 7 -48 -1 -30 13 -50 37 -50 29 0 79 -57 85 -98 4 -20 13 -55 21 -77 9 -27 12 -61 8 -105 -5 -56 -2 -78 25 -160 17 -52 36 -126 42 -165 6 -38 20 -82 30 -97 38 -54 41 -77 29 -203 -6 -66 -19 -213 -29 -327 l-19 -208 -72 -77 c-40 -43 -85 -85 -100 -94 -15 -10 -36 -34 -46 -56 l-19 -38 -78 1 c-58 0 -81 4 -94 16 -15 16 -14 19 18 50 19 18 55 47 81 65 25 17 64 54 86 82 58 73 82 146 93 280 5 62 16 125 23 140 11 21 12 59 6 191 -12 245 -30 303 -117 376 -29 25 -58 61 -72 93 -24 49 -25 50 -44 34 -10 -10 -30 -37 -44 -60 -33 -57 -87 -103 -121 -103 -15 0 -47 10 -72 21 -58 27 -121 30 -147 7 -13 -12 -33 -17 -58 -15 -33 2 -41 -2 -61 -30 -46 -68 -100 -347 -91 -476 7 -99 17 -144 33 -158 8 -6 14 -17 14 -23 0 -7 7 -21 16 -32 14 -18 15 -16 9 29 -5 35 -3 47 7 47 22 0 34 -13 59 -60 l24 -45 3 33 c2 21 -4 41 -17 58 -12 15 -21 36 -21 46 0 12 -9 22 -21 25 -14 4 -18 11 -13 22 3 9 9 27 12 41 2 14 11 33 19 42 11 13 13 31 8 81 -9 87 0 101 93 144 43 19 89 46 104 60 26 25 29 26 68 13 23 -7 43 -17 45 -21 3 -3 -31 -39 -75 -79 -44 -39 -80 -76 -80 -81 0 -21 33 -5 115 57 49 36 102 68 118 71 37 8 110 76 105 99 -9 48 -68 42 -128 -12 l-39 -36 -27 21 c-15 12 -33 21 -40 21 -17 0 -18 11 -3 43 11 25 47 47 77 47 9 0 37 9 61 21 42 18 47 19 83 4 21 -8 54 -15 72 -15 34 0 35 -1 45 -52 28 -144 34 -232 21 -368 -6 -74 -16 -155 -21 -180 -19 -90 -70 -185 -96 -176 -15 6 -66 -13 -97 -36 -18 -14 -17 -16 8 -66 33 -66 33 -82 -4 -117 -26 -25 -33 -27 -54 -17 -24 11 -36 24 -79 92 -23 35 -71 69 -82 58 -10 -9 8 -38 76 -124 l62 -77 -7 -99 -7 -98 95 0 c52 0 123 -6 158 -14 35 -8 91 -18 126 -22 60 -6 62 -6 62 16 0 28 15 79 41 138 11 23 19 56 19 72 0 45 17 80 39 80 26 0 34 15 16 30 -19 16 -19 50 1 78 22 32 89 30 138 -3 20 -14 47 -25 60 -25 37 0 31 56 -9 101 -18 20 -36 46 -39 57 -4 11 -13 23 -21 26 -23 9 -18 23 15 36 17 7 30 16 30 20 0 15 -48 66 -89 95 -74 51 -42 55 69 9 30 -12 57 -18 58 -13 2 5 -13 28 -33 50 -29 33 -35 46 -30 68 4 18 -1 42 -11 64 -17 35 -17 38 0 56 18 19 17 21 -2 45 -15 20 -21 49 -27 121 -6 84 -5 99 11 116 17 19 17 20 -3 38 -12 11 -23 38 -26 66 -4 26 -16 62 -26 79 -12 19 -20 48 -19 76 0 38 -4 48 -31 70 -17 15 -31 33 -31 41 0 23 -46 114 -90 179 -89 132 -230 254 -204 178z m-506 -690 l19 -23 42 23 c49 28 69 19 53 -24 -18 -52 -101 -92 -145 -70 -32 15 -46 58 -31 91 14 31 38 32 62 3z"
       id="path28" />
    <path
       d="M1789 3942 c-13 -10 -37 -25 -54 -33 -21 -10 -30 -21 -30 -39 0 -21 4 -25 29 -23 35 3 70 25 92 59 15 22 15 27 2 40 -13 13 -17 12 -39 -4z"
       id="path29" />
    <path
       d="M5940 3937 c1 -17 25 -47 39 -47 17 0 13 11 -14 36 -14 13 -25 18 -25 11z"
       id="path30" />
    <path
       d="M2675 3718 c-18 -61 -19 -113 -4 -157 17 -48 25 -37 24 37 0 37 4 91 9 120 11 70 -8 70 -29 0z"
       id="path31" />
    <path
       d="M3203 3748 c-13 -17 -43 -107 -43 -130 0 -27 14 -22 49 17 32 37 45 71 39 102 -4 22 -31 29 -45 11z"
       id="path32" />
    <path
       d="M5482 3739 c4 -28 35 -38 44 -14 8 19 6 20 -24 30 -21 6 -23 4 -20 -16z"
       id="path33" />
    <path
       d="M5272 3738 c-12 -6 -21 -16 -19 -22 6 -17 50 -18 72 -2 17 14 18 17 5 26 -19 12 -29 12 -58 -2z"
       id="path34" />
    <path
       d="M1486 3684 c-38 -13 -77 -31 -88 -40 -24 -22 -23 -65 3 -98 32 -41 40 -83 29 -153 -15 -90 -44 -163 -86 -212 -34 -39 -35 -43 -20 -60 22 -24 21 -33 -15 -96 -31 -56 -33 -85 -4 -85 18 0 19 -12 3 -28 -21 -21 10 -33 67 -27 28 3 56 1 64 -4 19 -13 6 -58 -19 -66 -24 -8 -48 -50 -56 -100 -3 -21 -12 -58 -20 -83 -18 -61 -18 -126 0 -142 9 -6 36 -10 62 -9 52 4 74 -15 74 -62 0 -14 9 -38 20 -52 11 -14 20 -30 20 -36 0 -6 13 -17 28 -25 27 -14 52 -52 52 -80 0 -30 104 -96 152 -96 26 0 28 -2 18 -15 -6 -8 -9 -18 -6 -23 3 -5 63 -12 133 -15 177 -7 291 -34 232 -52 -23 -8 -23 -8 -4 -16 26 -10 113 -9 145 1 23 7 22 8 -10 9 -65 2 -81 35 -20 43 31 4 38 43 15 87 -18 36 -45 41 -45 10 0 -44 -81 0 -118 64 -10 16 -46 48 -82 71 -80 52 -140 104 -140 120 0 23 37 47 106 70 l68 23 33 -26 c36 -28 48 -57 58 -138 7 -56 41 -118 65 -118 15 0 22 16 40 93 12 47 30 48 30 1 0 -22 5 -29 19 -29 10 0 24 6 30 14 7 8 43 33 81 55 59 35 110 84 110 105 0 17 -34 2 -69 -29 -21 -19 -44 -35 -50 -35 -13 0 -13 -2 -2 38 12 40 3 41 -51 2 -30 -22 -52 -30 -83 -30 -45 0 -56 8 -85 63 -9 17 -39 47 -66 65 -27 18 -61 44 -76 59 l-28 26 -43 -23 c-60 -32 -89 -23 -119 37 -21 45 -23 59 -22 218 0 199 18 300 90 510 24 72 44 137 44 145 0 12 -84 100 -95 100 -14 0 -73 -29 -79 -38 -3 -6 3 -48 14 -94 27 -112 26 -174 -3 -229 -13 -24 -34 -93 -47 -154 -25 -118 -28 -222 -15 -523 l6 -143 66 -52 c117 -93 147 -123 140 -140 -9 -24 -83 -22 -124 3 -18 10 -41 37 -53 60 -11 22 -25 40 -30 40 -6 0 -24 13 -41 30 -26 24 -31 35 -26 59 5 26 2 32 -21 43 -14 7 -43 40 -63 73 -20 33 -49 67 -64 77 -47 28 -72 96 -43 114 7 5 4 10 -10 15 -27 10 -28 25 -2 32 26 7 36 36 56 160 9 56 23 119 31 139 8 21 12 49 9 62 -4 16 1 37 13 58 28 47 59 159 75 265 7 51 19 99 25 107 7 8 11 23 9 34 -2 10 4 31 12 46 13 26 13 29 -5 42 -29 21 -120 16 -199 -12z m562 -1474 c53 -24 51 -44 -5 -48 -47 -4 -90 24 -80 51 8 22 32 21 85 -3z"
       id="path35" />
    <path
       d="M5496 3659 c-14 -11 -33 -33 -41 -49 -13 -25 -13 -29 1 -40 12 -11 19 -9 39 10 21 20 25 21 31 7 8 -21 34 -30 50 -16 8 6 14 29 14 50 0 33 -4 41 -26 49 -34 13 -37 13 -68 -11z"
       id="path36" />
    <path
       d="M5277 3653 c-10 -9 13 -33 33 -33 24 0 32 11 19 27 -12 14 -41 18 -52 6z"
       id="path37" />
    <path
       d="M2960 3418 c-22 -36 -22 -63 -1 -63 17 0 55 70 46 85 -11 18 -25 11 -45 -22z"
       id="path38" />
    <path
       d="M3087 3433 c-11 -10 -8 -51 3 -58 15 -9 40 14 40 35 0 10 -7 21 -16 24 -19 7 -19 7 -27 -1z"
       id="path39" />
    <path
       d="M5468 3419 c-23 -13 -23 -24 2 -49 23 -23 52 -15 64 16 13 34 -29 55 -66 33z"
       id="path40" />
    <path
       d="M3034 3325 c6 -28 3 -42 -9 -55 -11 -12 -14 -24 -9 -32 5 -7 7 -20 6 -30 -4 -25 16 -32 43 -14 20 13 25 13 35 1 7 -8 17 -15 22 -15 22 0 78 33 78 46 0 21 -25 17 -41 -6 -14 -19 -15 -19 -59 8 l-45 27 38 3 c20 2 37 7 37 13 0 16 -40 49 -60 49 -11 0 -20 6 -20 14 0 8 -5 18 -11 22 -9 5 -10 -4 -5 -31z"
       id="path41" />
    <path
       d="M2087 3323 c-12 -11 -8 -53 8 -82 16 -33 70 -81 90 -81 7 0 37 -16 66 -35 106 -72 232 -145 238 -140 3 4 -11 21 -32 38 -21 18 -103 94 -182 170 -131 124 -168 150 -188 130z"
       id="path42" />
    <path
       d="M2904 3316 c-8 -22 3 -49 19 -43 6 2 12 14 12 27 0 27 -22 39 -31 16z"
       id="path43" />
    <path
       d="M5471 3306 c-7 -8 -11 -32 -9 -53 2 -30 7 -38 23 -38 26 0 50 44 41 78 -7 30 -36 36 -55 13z"
       id="path44" />
    <path
       d="M2934 3205 c-4 -8 -3 -23 0 -32 6 -15 8 -15 23 -1 16 17 12 48 -7 48 -6 0 -13 -7 -16 -15z"
       id="path45" />
    <path
       d="M3067 3156 c-4 -10 -14 -12 -29 -8 -21 5 -22 4 -9 -11 11 -14 11 -20 1 -32 -10 -12 -10 -19 -2 -27 9 -9 17 -7 34 9 13 12 34 23 48 25 34 4 37 32 5 46 -34 15 -42 15 -48 -2z"
       id="path46" />
    <path
       d="M5428 3160 c-14 -9 -15 -15 -6 -41 10 -28 8 -33 -17 -53 l-27 -22 21 -42 c27 -52 26 -66 -2 -79 -19 -9 -22 -18 -22 -59 1 -26 5 -49 11 -51 17 -5 74 36 74 54 0 10 9 33 20 51 15 25 19 42 14 72 -5 29 -1 47 14 72 22 36 20 52 -11 86 -22 24 -42 27 -69 12z"
       id="path47" />
    <path
       d="M1960 3048 c0 -43 43 -147 76 -186 40 -47 71 -54 100 -21 10 12 43 32 72 45 28 13 52 26 52 29 0 3 -7 19 -15 36 l-16 29 -85 -6 -85 -7 -50 49 c-31 31 -49 43 -49 32z"
       id="path48" />
    <path
       d="M4100 3027 c-14 -7 -26 -20 -28 -30 -5 -24 49 -23 71 1 35 38 9 55 -43 29z"
       id="path49" />
    <path
       d="M2992 3008 c-15 -20 -42 -76 -42 -89 0 -20 41 23 56 58 8 18 14 35 14 38 0 10 -18 5 -28 -7z"
       id="path50" />
    <path
       d="M2302 2999 c-31 -12 -25 -43 9 -47 30 -3 76 29 65 46 -8 14 -42 15 -74 1z"
       id="path51" />
    <path
       d="M4260 2958 c-16 -24 -40 -59 -53 -78 -16 -25 -36 -39 -69 -50 -63 -20 -79 -37 -54 -56 79 -57 226 68 226 193 0 39 -19 35 -50 -9z"
       id="path52" />
    <path
       d="M3985 2956 c-27 -19 -13 -46 25 -46 34 0 49 22 30 45 -15 19 -31 19 -55 1z"
       id="path53" />
    <path
       d="M1907 2883 c-7 -12 11 -53 23 -53 11 0 13 20 4 44 -6 17 -20 21 -27 9z"
       id="path54" />
    <path
       d="M2160 2757 c-39 -20 -37 -43 6 -57 30 -10 50 -9 120 6 46 10 83 23 81 29 -10 30 -159 46 -207 22z"
       id="path55" />
    <path
       d="M4000 2756 c0 -15 21 -26 51 -26 22 0 24 11 7 28 -17 17 -58 15 -58 -2z"
       id="path56" />
    <path
       d="M5325 2750 c-3 -5 8 -18 25 -29 17 -10 38 -28 46 -40 9 -12 20 -19 25 -15 13 8 2 54 -18 77 -17 18 -68 23 -78 7z"
       id="path57" />
    <path
       d="M2350 2665 c-84 -51 -100 -65 -112 -91 -8 -18 -8 -28 0 -36 21 -21 67 3 129 70 90 97 84 118 -17 57z"
       id="path58" />
    <path
       d="M4029 2673 c-1 -5 0 -16 1 -27 1 -16 -3 -17 -38 -11 -50 8 -66 -10 -32 -37 28 -23 59 -23 76 0 12 16 14 16 36 -5 40 -38 87 -27 73 17 -10 31 -112 86 -116 63z"
       id="path59" />
    <path
       d="M2433 2594 c-39 -30 -42 -44 -10 -44 30 0 87 36 87 55 0 23 -41 18 -77 -11z"
       id="path60" />
    <path
       d="M5350 2593 c0 -20 -11 -40 -35 -63 -23 -22 -35 -43 -35 -61 0 -23 -5 -28 -37 -34 -56 -10 -63 -19 -19 -25 21 -3 42 -12 46 -20 34 -69 34 -66 6 -115 -22 -36 -25 -49 -16 -60 10 -12 4 -30 -29 -91 -44 -80 -50 -122 -29 -181 10 -28 9 -38 -5 -62 -11 -18 -15 -40 -11 -57 4 -24 1 -31 -18 -39 -14 -6 -28 -25 -35 -48 -7 -21 -20 -45 -28 -53 -18 -19 -19 -36 -3 -52 23 -23 52 -12 97 37 25 26 53 51 61 53 12 4 11 11 -8 37 l-24 33 21 19 c12 11 21 26 21 34 0 8 10 21 22 29 20 14 20 18 8 41 -12 23 -11 27 9 49 13 14 21 29 17 34 -3 5 9 28 26 51 27 37 29 45 18 65 -10 19 -9 29 4 53 13 26 13 33 1 51 -13 17 -13 24 0 49 8 15 15 38 15 50 0 13 9 46 20 75 l20 52 -25 26 c-31 33 -31 40 0 40 18 0 31 10 45 32 23 38 15 53 -36 63 -20 3 -42 9 -50 12 -10 4 -14 -3 -14 -24z"
       id="path61" />
    <path
       d="M4005 2517 c-17 -13 -17 -15 3 -35 27 -27 38 -28 52 -1 23 42 -14 65 -55 36z"
       id="path62" />
    <path
       d="M2367 2293 c-12 -11 -8 -43 6 -43 17 0 57 29 57 41 0 10 -53 13 -63 2z"
       id="path63" />
    <path
       d="M5155 2280 c-8 -13 20 -24 41 -16 20 8 9 26 -16 26 -10 0 -22 -5 -25 -10z"
       id="path64" />
    <path
       d="M3963 2104 c-7 -18 9 -51 23 -46 14 3 11 55 -3 59 -7 3 -16 -3 -20 -13z"
       id="path65" />
    <path
       d="M2575 2070 c-9 -15 14 -40 36 -40 21 0 25 20 7 38 -15 15 -35 15 -43 2z"
       id="path66" />
    <path
       d="M3380 2065 c-9 -11 -10 -19 -2 -27 14 -14 32 -1 32 23 0 23 -13 25 -30 4z"
       id="path67" />
    <path
       d="M2360 2030 c-13 -9 -11 -14 13 -35 15 -14 46 -28 68 -31 28 -5 39 -11 39 -24 0 -20 30 -50 51 -50 8 0 29 -10 46 -22 16 -13 69 -43 117 -67 65 -34 89 -42 98 -33 13 13 -6 42 -29 42 -8 0 -22 14 -31 30 -9 17 -28 33 -42 36 -14 3 -32 9 -40 14 -82 49 -122 70 -144 76 -14 3 -26 10 -26 16 0 5 -11 20 -25 33 -25 26 -68 33 -95 15z"
       id="path68" />
    <path
       d="M3865 2030 c-10 -16 4 -30 31 -30 26 0 31 9 12 28 -15 15 -35 16 -43 2z"
       id="path69" />
    <path
       d="M4002 2008 c-7 -7 -12 -17 -12 -22 0 -6 -14 -23 -32 -37 -34 -28 -34 -59 1 -59 20 0 81 84 81 113 0 20 -21 22 -38 5z"
       id="path70" />
    <path
       d="M4677 2000 c-14 -11 -30 -20 -37 -20 -18 0 -41 -68 -38 -113 2 -34 8 -44 30 -55 60 -28 111 28 83 94 -14 34 -14 35 11 44 33 13 42 39 19 56 -25 19 -38 18 -68 -6z"
       id="path71" />
    <path
       d="M4097 2003 c-8 -7 31 -53 45 -53 4 0 8 8 8 18 0 31 -35 54 -53 35z"
       id="path72" />
    <path
       d="M3280 1991 c0 -5 12 -19 26 -30 16 -13 24 -27 20 -36 -8 -21 20 -31 39 -15 21 18 19 37 -10 65 -23 24 -75 35 -75 16z"
       id="path73" />
    <path
       d="M4320 1988 c-24 -9 -24 -10 -6 -23 28 -21 105 -49 113 -42 8 9 -19 38 -54 58 -21 12 -34 14 -53 7z"
       id="path74" />
    <path
       d="M2164 1959 c-10 -17 11 -31 59 -36 51 -6 72 11 42 34 -22 16 -91 17 -101 2z"
       id="path75" />
    <path
       d="M5819 1923 c-18 -15 -46 -32 -63 -38 -17 -5 -32 -18 -34 -27 -5 -28 30 -22 73 12 23 18 50 30 67 30 25 0 29 4 26 22 -4 33 -30 33 -69 1z"
       id="path76" />
    <path
       d="M3821 1854 c-33 -31 -61 -65 -61 -75 0 -10 3 -19 6 -19 11 0 50 24 102 63 39 29 52 46 50 61 -5 37 -34 28 -97 -30z"
       id="path77" />
    <path
       d="M3445 1874 c-22 -8 -62 -19 -90 -25 -27 -5 -60 -12 -73 -15 -13 -3 -20 -9 -16 -16 19 -30 219 21 232 60 5 15 -3 14 -53 -4z"
       id="path78" />
    <path
       d="M2241 1866 c-8 -10 -9 -16 -1 -21 23 -14 6 -24 -57 -31 -38 -3 -78 -10 -90 -15 -25 -9 -31 -42 -10 -58 6 -6 29 -24 49 -42 l38 -31 43 21 c24 12 53 21 65 21 24 0 29 -19 10 -38 -9 -9 -9 -16 4 -28 14 -14 19 -14 55 4 77 40 80 68 8 74 -37 3 -40 5 -47 43 -21 109 -38 136 -67 101z"
       id="path79" />
    <path
       d="M5832 1828 c-7 -7 -12 -18 -12 -25 0 -7 -11 -15 -25 -19 -34 -8 -32 -24 3 -24 38 0 74 27 70 53 -4 25 -19 32 -36 15z"
       id="path80" />
    <path
       d="M2380 1815 c0 -2 21 -25 46 -50 33 -33 51 -44 64 -40 12 4 51 -11 107 -40 111 -59 323 -116 323 -87 0 7 -76 37 -170 67 -30 9 -63 23 -74 31 -11 8 -27 14 -35 14 -7 0 -31 16 -52 35 -22 20 -50 35 -64 35 -13 0 -47 9 -75 20 -51 20 -70 24 -70 15z"
       id="path81" />
    <path
       d="M4474 1798 c-9 -13 16 -48 48 -68 l31 -18 -46 -7 c-37 -6 -47 -11 -49 -28 -4 -29 -34 -34 -43 -8 -8 26 -16 26 -44 0 -18 -17 -20 -24 -10 -35 16 -20 125 -80 177 -98 37 -13 43 -13 57 0 8 9 15 21 15 28 0 7 10 26 22 41 18 23 19 30 9 47 -11 17 -9 24 13 47 32 33 33 46 3 66 -28 18 -176 45 -183 33z"
       id="path82" />
    <path
       d="M3985 1780 c-17 -10 -41 -33 -53 -50 -13 -17 -32 -30 -45 -30 -27 -1 -159 -70 -164 -87 -6 -16 68 2 133 34 29 14 60 23 68 20 22 -9 20 -56 -4 -92 -24 -36 -25 -55 -5 -55 8 0 15 5 15 10 0 6 16 20 35 32 35 20 35 21 15 35 -30 21 -26 72 9 121 16 22 34 43 40 47 15 9 14 35 -1 35 -7 0 -27 -9 -43 -20z"
       id="path83" />
    <path
       d="M4097 1733 c-23 -23 34 -62 70 -48 16 6 15 9 -10 31 -28 24 -48 30 -60 17z"
       id="path84" />
    <path
       d="M4030 1671 c0 -12 68 -43 83 -38 7 2 0 10 -15 17 -16 7 -28 17 -28 22 0 4 -9 8 -20 8 -11 0 -20 -4 -20 -9z"
       id="path85" />
    <path
       d="M4143 1623 c-20 -8 -15 -23 7 -23 11 0 23 -7 26 -15 4 -8 16 -15 28 -15 28 0 67 -40 81 -82 8 -25 34 -49 112 -102 57 -38 105 -67 108 -64 3 3 0 18 -7 32 -13 31 0 47 31 39 16 -4 41 31 41 57 0 19 -109 92 -142 95 -18 1 -46 10 -63 19 -16 9 -47 16 -68 16 -41 0 -107 26 -107 41 0 10 -27 11 -47 2z"
       id="path86" />
    <path
       d="M5397 1613 c-4 -3 -7 -33 -7 -65 0 -47 -4 -60 -20 -70 -27 -17 -25 -34 5 -54 29 -19 32 -34 7 -34 -40 0 -98 -88 -108 -164 -5 -32 -15 -52 -34 -70 -16 -13 -31 -39 -35 -56 -4 -17 -13 -34 -21 -37 -7 -3 -24 -28 -37 -56 -13 -29 -45 -79 -71 -111 -34 -44 -46 -68 -46 -93 0 -19 -13 -66 -30 -105 -16 -38 -30 -73 -30 -78 0 -4 32 -12 71 -17 l71 -9 29 64 c16 35 45 90 64 121 26 42 37 74 44 127 8 66 38 145 61 159 5 3 10 21 10 40 0 26 7 38 30 55 17 12 29 27 28 33 -5 22 45 109 68 119 31 14 30 26 -1 40 -27 12 -29 18 -26 93 2 42 7 54 32 75 38 33 38 65 -1 85 -32 17 -43 18 -53 8z"
       id="path87" />
    <path
       d="M5060 1597 c-35 -18 -36 -44 -4 -78 34 -35 44 -36 78 -4 31 28 32 36 9 63 -24 27 -53 34 -83 19z"
       id="path88" />
    <path
       d="M3947 1493 c-8 -8 32 -53 47 -53 23 -1 91 -62 157 -142 89 -108 89 -121 0 -54 -19 14 -37 24 -39 21 -8 -7 18 -34 39 -40 22 -7 26 -35 5 -35 -8 0 -27 5 -41 10 -36 14 -61 -2 -69 -44 -4 -19 -16 -46 -27 -60 -13 -17 -25 -56 -34 -114 -17 -112 -21 -120 -58 -130 -28 -7 -33 -14 -42 -59 -5 -29 -12 -54 -15 -57 -3 -3 -43 -10 -89 -15 -47 -6 -95 -18 -107 -26 -21 -13 -26 -13 -54 3 -30 17 -31 17 -51 -7 -13 -17 -19 -38 -19 -77 0 -56 -16 -75 -22 -27 l-4 28 -23 -37 c-31 -51 -45 -49 -37 4 6 35 5 39 -8 29 -11 -9 -20 -10 -36 -1 -18 9 -23 7 -38 -19 -28 -51 -52 -36 -52 32 0 18 -4 47 -10 65 -7 28 -3 51 22 129 l31 94 -20 42 -20 42 -8 -42 c-8 -48 -16 -52 -53 -23 -23 19 -27 19 -35 5 -30 -55 -25 -121 8 -109 22 9 19 -23 -9 -92 -48 -120 -43 -196 14 -207 16 -4 31 -15 35 -26 4 -14 15 -20 33 -20 61 0 62 -1 62 -56 0 -59 21 -98 41 -78 19 19 26 16 33 -12 7 -28 21 -33 30 -10 4 12 11 13 31 5 18 -7 33 -7 46 1 16 8 25 7 38 -5 27 -24 68 -20 87 9 9 14 20 59 25 101 4 42 11 79 13 82 3 3 13 -1 22 -9 14 -12 19 -10 38 12 11 15 26 34 32 45 9 15 15 16 40 7 16 -6 55 -14 87 -17 l58 -5 24 38 c36 58 70 81 109 74 26 -4 38 0 54 17 23 25 42 91 42 149 0 22 5 43 10 46 6 3 10 19 10 34 0 18 8 34 21 42 20 14 20 15 2 47 l-18 33 28 20 c31 24 34 44 10 71 -15 17 -15 18 15 12 39 -8 42 9 10 43 -30 32 -16 40 25 14 39 -24 57 -14 57 30 0 33 -34 76 -101 125 -55 40 -73 40 -40 -2 25 -32 20 -45 -8 -20 -41 37 -42 9 -2 -42 23 -29 37 -52 31 -52 -6 0 -66 53 -133 118 -67 66 -136 126 -154 135 -36 19 -37 19 -46 10z"
       id="path89" />
    <path
       d="M4993 1485 c-12 -8 -32 -32 -44 -52 -12 -21 -36 -50 -53 -65 -26 -23 -29 -29 -16 -37 13 -9 11 -14 -12 -36 -18 -16 -28 -36 -28 -54 0 -15 -7 -42 -15 -59 -17 -32 -69 -82 -87 -82 -6 0 -8 -13 -4 -34 5 -28 3 -34 -14 -39 -13 -3 -18 -10 -14 -21 9 -24 -63 -146 -86 -146 -15 0 -19 -8 -22 -37 -2 -31 -7 -39 -26 -41 -14 -2 -29 -17 -42 -42 -24 -47 -25 -62 -4 -102 15 -30 15 -32 -2 -45 -26 -19 -32 -17 -48 21 -9 22 -24 37 -46 44 l-32 12 7 -43 c11 -66 22 -87 45 -87 25 0 72 23 117 56 20 15 38 21 49 17 19 -7 18 2 -8 65 -12 31 -11 35 11 53 25 20 71 26 71 8 0 -22 21 5 50 61 34 67 36 82 15 100 -18 15 -2 42 19 34 35 -13 96 50 96 100 0 11 9 35 20 51 12 17 28 46 36 65 8 19 24 42 36 51 11 9 22 30 24 48 5 42 31 90 67 123 33 32 32 56 -4 101 -24 31 -27 32 -56 12z"
       id="path90" />
    <path
       d="M4359 1340 c75 -71 111 -95 111 -72 -1 23 -156 153 -183 152 -7 -1 26 -37 72 -80z"
       id="path91" />
    <path
       d="M2435 1309 c-14 -17 -23 -34 -20 -37 6 -6 65 48 65 60 0 17 -19 7 -45 -23z"
       id="path92" />
    <path
       d="M2586 1205 c-3 -8 -16 -15 -30 -15 -31 0 -66 -43 -66 -80 0 -34 59 -90 95 -90 20 0 25 -5 25 -24 0 -36 27 -58 61 -51 24 5 29 3 29 -11 0 -10 21 -53 47 -96 40 -66 53 -80 94 -97 26 -12 52 -21 57 -21 23 0 97 -49 101 -66 5 -27 20 -43 62 -65 87 -44 104 -20 94 132 -4 60 -10 109 -14 109 -4 0 -12 -5 -19 -12 -9 -9 -15 -8 -25 6 -12 16 -16 17 -34 5 -18 -11 -25 -10 -47 4 -42 28 -59 64 -58 118 0 27 -3 49 -9 49 -5 0 -9 -3 -9 -7 0 -5 -9 -19 -19 -32 l-19 -25 -31 27 c-18 15 -50 31 -72 37 -43 12 -79 41 -79 65 0 21 -17 19 -51 -6 l-29 -20 0 35 c0 28 -4 35 -22 38 -24 3 -25 10 -12 76 6 32 -9 46 -20 17z"
       id="path93" />
    <path
       d="M2042 1198 c-14 -14 -16 -58 -2 -58 16 0 52 40 47 53 -5 17 -30 20 -45 5z"
       id="path94" />
    <path
       d="M3662 1148 c-27 -27 -6 -68 34 -68 13 0 36 11 51 24 l28 25 -37 15 c-45 19 -60 20 -76 4z"
       id="path95" />
    <path
       d="M5938 1043 c-23 -37 -23 -43 -24 -308 0 -306 -7 -350 -68 -429 -37 -49 -60 -113 -50 -140 4 -11 -2 -19 -20 -26 -14 -5 -26 -14 -26 -20 0 -5 -16 -27 -35 -48 -19 -22 -32 -42 -28 -46 10 -10 119 -7 148 4 14 5 28 18 32 27 3 10 18 32 33 48 21 22 29 43 32 83 4 35 13 64 29 85 24 32 24 33 28 346 3 311 -3 461 -19 461 -5 0 -19 -17 -32 -37z"
       id="path96" />
    <path
       d="M3406 1044 c-9 -25 -7 -102 4 -109 11 -7 40 46 40 74 0 29 -11 51 -25 51 -7 0 -16 -7 -19 -16z"
       id="path97" />
    <path
       d="M2101 1039 c-20 -8 -22 -14 -18 -52 10 -79 66 -223 103 -263 19 -21 34 -46 34 -56 0 -10 19 -31 43 -48 92 -66 148 -115 168 -147 15 -24 42 -43 103 -71 98 -46 174 -94 239 -150 28 -24 58 -42 72 -42 13 0 40 -14 60 -31 34 -30 36 -31 55 -14 23 21 44 80 35 95 -14 23 -89 70 -110 70 -12 0 -47 22 -78 49 -31 27 -65 52 -76 56 -11 3 -23 14 -26 25 -8 24 -30 32 -60 20 -21 -8 -30 -3 -81 50 -31 32 -63 68 -71 79 -8 12 -23 21 -33 21 -10 0 -29 15 -42 33 -12 17 -47 61 -76 96 -30 35 -62 82 -72 106 -10 23 -36 60 -58 81 -22 22 -43 49 -47 62 -9 29 -34 42 -64 31z"
       id="path98" />
    <path
       d="M3194 985 c-4 -9 -2 -21 5 -28 13 -13 18 -9 23 17 4 24 -20 33 -28 11z"
       id="path99" />
    <path
       d="M4810 491 l0 -79 -37 20 c-42 21 -90 18 -131 -9 -82 -52 -81 -274 1 -328 43 -27 92 -30 132 -7 28 17 35 18 35 7 0 -10 10 -15 30 -15 l30 0 0 245 0 245 -30 0 -30 0 0 -79z m-36 -124 c43 -43 43 -171 0 -218 -23 -25 -75 -25 -99 1 -41 46 -38 187 5 222 30 25 66 23 94 -5z"
       id="path100" />
    <path
       d="M5072 438 c-60 -20 -112 -102 -112 -178 0 -79 55 -162 118 -180 51 -14 80 -13 140 5 47 14 52 18 52 45 0 35 4 34 -50 15 -54 -19 -120 -19 -147 0 -24 17 -48 78 -39 100 4 12 30 15 127 15 l122 0 -6 46 c-11 102 -108 164 -205 132z m99 -58 c10 -6 26 -24 34 -40 l16 -30 -91 0 c-93 0 -104 6 -77 41 28 36 80 49 118 29z"
       id="path101" />
    <path
       d="M5345 423 c3 -10 31 -90 63 -178 l57 -160 40 -3 40 -3 59 168 c33 92 61 174 64 181 3 10 -4 13 -29 10 -34 -3 -34 -3 -81 -137 -26 -74 -49 -136 -52 -138 -2 -2 -25 60 -52 137 l-49 140 -33 0 c-27 0 -32 -3 -27 -17z"
       id="path102" />
    <path
       d="M1989 326 c-20 -42 -3 -72 65 -121 73 -52 120 -101 144 -151 l16 -34 125 1 126 1 -50 24 c-27 13 -61 24 -74 24 -15 0 -41 18 -73 50 -27 27 -53 50 -59 50 -5 0 -9 27 -9 60 0 33 -2 60 -5 60 -3 0 -16 -7 -29 -15 -28 -19 -69 -7 -86 24 -9 18 -58 51 -75 51 -3 0 -10 -11 -16 -24z"
       id="path103" />
    <path
       d="M3672 186 c-35 -135 -39 -166 -19 -166 43 1 70 70 69 177 -1 133 -14 130 -50 -11z"
       id="path104" />
    <path
       d="M4151 139 c-6 -61 -10 -114 -7 -116 12 -12 34 8 39 35 6 29 -6 179 -15 188 -3 2 -10 -46 -17 -107z"
       id="path105" />
    <path
       d="M3014 185 c-21 -32 -13 -52 47 -110 48 -48 51 -49 65 -31 23 32 16 56 -31 103 -25 24 -45 48 -45 53 0 18 -19 10 -36 -15z"
       id="path106" />
    <path
       d="M4280 145 l0 -65 55 0 55 0 0 65 0 65 -55 0 -55 0 0 -65z"
       id="path107" />
  </g>
</svg>
